<?xml version="1.0" standalone="no"?>
<!DOCTYPE svg PUBLIC "-//W3C//DTD SVG 20010904//EN"
 "http://www.w3.org/TR/2001/REC-SVG-20010904/DTD/svg10.dtd">
<svg version="1.0" xmlns="http://www.w3.org/2000/svg"
 width="425.000000pt" height="425.000000pt" viewBox="0 0 425.000000 425.000000"
 preserveAspectRatio="xMidYMid meet">
<metadata>
Created by potrace 1.14, written by Peter Selinger 2001-2017
</metadata>
<g transform="translate(0.000000,425.000000) scale(0.100000,-0.100000)"
fill="#000000" stroke="none">
<path d="M1167 3979 c-176 -65 -255 -265 -172 -435 78 -160 297 -218 447 -119
110 73 162 202 134 334 -36 172 -241 283 -409 220z"/>
<path d="M2924 3981 c-133 -51 -206 -154 -207 -291 -1 -149 88 -267 231 -304
163 -43 329 52 377 217 49 171 -55 344 -232 386 -60 15 -115 12 -169 -8z"/>
<path d="M1754 3866 c-14 -10 -14 -20 -4 -76 6 -36 16 -71 22 -77 8 -10 96
-13 378 -13 282 0 370 3 377 13 16 21 34 140 22 152 -15 15 -774 16 -795 1z"/>
<path d="M848 3363 c-9 -10 -25 -35 -37 -55 -47 -84 -61 -108 -85 -147 -15
-22 -26 -43 -26 -46 0 -2 -17 -33 -38 -67 -21 -35 -52 -88 -69 -118 -44 -80
-134 -233 -143 -245 -10 -12 6 -55 20 -55 5 0 33 -11 60 -24 47 -23 51 -23 69
-8 10 10 37 51 61 92 56 99 61 107 175 305 143 246 149 259 152 275 2 15 -95
110 -113 110 -6 0 -18 -8 -26 -17z"/>
<path d="M3391 3352 c-7 -2 -30 -20 -49 -38 -20 -19 -39 -34 -43 -34 -4 0 -10
-8 -13 -18 -4 -13 44 -106 149 -287 85 -147 155 -270 155 -271 0 -12 63 -103
74 -107 8 -3 38 4 67 16 69 28 79 35 79 52 0 11 -286 517 -330 585 -5 8 -19
31 -29 51 -23 43 -41 58 -60 51z"/>
<path d="M2655 3274 c-31 -66 4 -62 -535 -62 l-490 0 -22 31 c-12 18 -26 35
-32 39 -11 8 -133 -52 -140 -68 -2 -7 4 -30 15 -52 l20 -40 -42 -74 c-23 -40
-50 -88 -60 -106 -11 -18 -59 -102 -107 -185 -49 -84 -134 -231 -190 -328
l-102 -177 -68 1 c-38 0 -74 -3 -80 -7 -8 -4 -12 -36 -12 -82 0 -87 6 -93 102
-89 l58 2 89 -156 c49 -86 95 -161 100 -168 6 -7 11 -15 11 -18 0 -3 68 -123
151 -267 116 -199 149 -265 142 -277 -5 -9 -24 -41 -41 -72 -38 -67 -34 -77
51 -114 l58 -25 25 27 c14 15 32 43 41 62 9 20 18 38 21 41 2 3 229 5 505 6
435 1 504 -1 520 -14 9 -8 17 -19 17 -23 0 -5 14 -31 31 -59 32 -52 62 -65 91
-37 7 6 30 20 51 29 21 10 37 25 37 34 0 10 -18 49 -40 87 -23 39 -39 76 -36
83 3 7 64 115 137 241 72 125 142 247 155 270 13 23 53 92 89 153 36 61 65
113 65 116 0 3 11 22 25 42 24 36 27 37 90 38 36 0 68 3 71 7 11 11 10 138 -1
154 -8 10 -28 15 -66 15 -30 1 -60 4 -66 7 -7 4 -91 144 -188 311 -96 168
-180 312 -185 320 -5 8 -38 66 -74 128 l-65 113 21 44 c23 47 19 74 -12 82
-11 3 -20 9 -20 14 0 5 -6 9 -14 9 -8 0 -16 5 -18 12 -2 6 -18 13 -35 14 -27
2 -34 -3 -48 -32z m-184 -243 c20 -3 16 -39 -9 -85 -66 -119 -85 -151 -94
-154 -4 -2 -8 -7 -8 -12 0 -5 -26 -53 -58 -107 l-58 -98 -119 -1 c-104 -1
-122 1 -137 17 -10 10 -18 20 -18 23 0 3 -36 66 -80 142 -44 75 -80 140 -80
145 0 5 -4 9 -8 9 -12 0 -49 83 -44 102 2 9 13 18 25 20 20 3 673 2 688 -1z
m267 -181 c14 -25 30 -46 34 -48 4 -2 8 -10 8 -18 0 -8 9 -27 19 -42 16 -23
57 -92 153 -262 11 -19 40 -70 65 -112 68 -119 76 -115 -222 -115 l-245 0 -30
49 c-17 26 -30 50 -30 52 0 2 -18 34 -40 70 -22 36 -39 71 -38 78 2 7 20 41
41 75 20 35 37 66 37 69 0 2 8 17 19 32 10 15 47 75 81 134 35 59 70 109 79
111 18 4 32 -10 69 -73z m-1136 43 c14 -17 62 -96 116 -193 14 -25 47 -82 73
-128 27 -45 49 -85 49 -87 0 -3 -29 -56 -65 -118 l-65 -114 -244 1 c-134 1
-248 5 -252 9 -17 17 -11 41 24 100 20 34 46 78 57 98 167 296 261 449 275
449 9 0 24 -8 32 -17z m662 -512 c22 -18 126 -204 126 -225 0 -9 -4 -16 -10
-16 -5 0 -10 -5 -10 -10 0 -14 -88 -166 -106 -184 -10 -10 -43 -13 -131 -11
-65 1 -123 3 -130 4 -10 1 -30 30 -90 136 -51 87 -50 82 -17 144 79 145 89
161 114 169 42 14 235 9 254 -7z m-551 -311 c9 -10 113 -195 120 -213 5 -14
-75 -169 -133 -257 -5 -8 -19 -33 -31 -55 -12 -22 -33 -59 -48 -82 -48 -77
-52 -73 -212 205 -78 136 -149 260 -158 277 -9 16 -18 32 -21 35 -10 10 -30
50 -30 59 0 33 26 37 268 36 132 0 243 -3 245 -5z m1337 -10 c11 -18 -3 -51
-64 -153 -25 -43 -46 -82 -46 -87 0 -5 -3 -10 -7 -12 -5 -1 -19 -23 -32 -48
-14 -25 -43 -76 -66 -115 -23 -38 -53 -90 -66 -115 -34 -64 -69 -110 -84 -110
-16 0 -65 63 -65 83 0 9 -4 17 -8 19 -5 2 -50 76 -101 165 l-93 163 66 113 65
113 246 -1 c202 0 247 -3 255 -15z m-660 -516 c101 -176 120 -215 111 -231 -9
-19 -24 -20 -371 -19 -335 1 -362 2 -371 19 -8 14 14 60 112 230 l123 213 137
0 137 0 122 -212z"/>
<path d="M223 2457 c-266 -94 -287 -450 -34 -574 146 -72 336 -7 409 140 31
61 38 104 32 172 -21 202 -218 329 -407 262z"/>
<path d="M3835 2463 c-59 -18 -98 -43 -143 -92 -55 -61 -76 -116 -77 -206 -2
-70 2 -87 27 -136 33 -65 74 -106 142 -144 41 -22 63 -27 120 -27 91 -1 112 3
163 30 74 39 143 126 160 202 6 25 6 122 0 150 -12 64 -91 166 -151 197 -75
39 -165 49 -241 26z"/>
<path d="M508 1713 c-44 -20 -58 -31 -58 -47 0 -11 32 -74 70 -140 39 -65 70
-120 70 -121 0 -1 65 -114 144 -251 99 -170 150 -250 163 -252 23 -3 123 75
123 96 0 7 -37 78 -81 155 -45 78 -90 156 -99 172 -9 17 -50 87 -90 155 -40
69 -82 141 -92 160 -64 114 -61 113 -150 73z"/>
<path d="M3637 1702 c-13 -20 -32 -53 -43 -72 -10 -19 -25 -43 -33 -52 -8 -10
-10 -18 -5 -18 5 0 4 -4 -2 -8 -6 -4 -29 -41 -53 -82 -23 -41 -46 -82 -51 -90
-53 -82 -200 -348 -200 -361 0 -19 103 -100 122 -97 18 4 29 21 110 161 39 67
84 145 100 172 16 28 32 58 35 68 3 9 9 17 14 17 5 0 9 4 9 8 0 8 111 205 142
252 9 14 20 37 23 52 7 26 3 29 -51 54 -87 38 -91 38 -117 -4z"/>
<path d="M1268 875 c-2 -2 -22 -5 -45 -9 -61 -8 -127 -42 -174 -90 -59 -62
-81 -116 -84 -208 -2 -68 1 -86 26 -138 127 -268 515 -228 586 60 8 32 9 131
1 136 -4 3 -8 13 -8 23 0 53 -86 154 -165 194 -28 14 -131 38 -137 32z"/>
<path d="M3007 874 c-3 -3 -22 -7 -43 -10 -21 -3 -44 -10 -51 -16 -7 -6 -13
-7 -13 -4 0 4 -20 -7 -44 -23 -67 -47 -103 -94 -132 -176 -10 -30 -11 -115 -1
-155 21 -87 77 -161 153 -202 224 -121 490 60 459 311 -18 146 -125 246 -291
275 -18 3 -34 3 -37 0z"/>
<path d="M1771 615 c-14 -19 -13 -141 1 -152 20 -17 745 -14 758 2 11 14 8
141 -4 153 -12 12 -746 9 -755 -3z"/>
</g>
</svg>
